<?xml version="1.0" encoding="UTF-8"?>
<!DOCTYPE svg PUBLIC "-//W3C//DTD SVG 1.1//EN" "http://www.w3.org/Graphics/SVG/1.1/DTD/svg11.dtd">
<!-- Creator: CorelDRAW 2019 (64-Bit) -->
<svg xmlns="http://www.w3.org/2000/svg" xml:space="preserve" width="172.125mm" height="89.7236mm" version="1.1" style="shape-rendering:geometricPrecision; text-rendering:geometricPrecision; image-rendering:optimizeQuality; fill-rule:evenodd; clip-rule:evenodd"
viewBox="0 0 8511.27 4436.66"
 xmlns:xlink="http://www.w3.org/1999/xlink"
 xmlns:xodm="http://www.corel.com/coreldraw/odm/2003">
 <defs>
  <style type="text/css">
   <![CDATA[
    .str0 {stroke:#3C5BA7;stroke-width:197.79;stroke-miterlimit:22.9256}
    .fil0 {fill:none}
    .fil1 {fill:#F2F2F2;fill-rule:nonzero}
   ]]>
  </style>
 </defs>
 <g id="Layer_x0020_1">
  <metadata id="CorelCorpID_0Corel-Layer"/>
  <g id="_2671414531776">
   <polygon class="fil0 str0" points="5040.74,193.39 5703.98,2248.7 6367.2,4304.01 4255.64,3850.73 2144.07,3397.45 3592.4,1795.42 "/>
   <path class="fil1" d="M507.53 2380.03c0,22.44 15.54,52.37 47.76,90.35 32.22,37.4 79.98,84.01 143.86,139.26 42.01,34.52 84.59,68.48 128.9,101.85 44.31,33.37 88.62,66.75 132.35,100.7 18.99,15.54 43.74,36.25 74.23,61.57 30.5,25.32 65.6,54.67 106.46,88.62 28.77,22.44 59.27,44.88 91.49,67.32 32.23,22.44 66.75,44.88 103.58,67.9 24.74,18.99 52.37,39.71 82.87,62.15 29.92,22.44 65.02,46.61 104.15,72.51 22.44,13.81 39.71,37.98 52.37,73.66 12.09,35.68 19.57,81.13 21.87,137.52l-14.96 43.74 -17.26 8.63c-10.93,0 -25.9,-4.6 -44.31,-14.38 -18.41,-9.78 -42.01,-23.59 -70.21,-41.43 -5.18,-3.45 -31.07,-15.54 -76.53,-36.83 -45.46,-21.87 -111.06,-51.79 -196.22,-91.49 -47.19,-20.14 -90.34,-43.16 -130.05,-68.48 -39.13,-25.32 -74.81,-51.79 -107.61,-79.99 -18.99,-16.68 -43.73,-35.68 -73.08,-55.82 -29.92,-20.14 -65.02,-42.01 -105.3,-65.6 -42.01,-24.17 -77.68,-46.61 -108.18,-67.9 -29.92,-21.29 -54.09,-39.13 -72.51,-54.09 -60.42,-49.49 -109.91,-86.89 -147.88,-112.79 -38.55,-25.89 -64.45,-39.13 -79.41,-39.13 -10.94,16.11 -17.27,32.23 -18.41,48.91 -13.81,52.94 -27.62,119.69 -43.16,199.68 -14.96,80.56 -31.65,173.78 -49.49,280.24 0,19.56 -3.45,33.95 -10.36,43.16 -6.9,9.78 -16.69,14.38 -30.5,14.38 -43.73,0 -76.53,-10.93 -98.98,-32.23 -22.44,-21.29 -33.95,-52.94 -33.95,-96.1 0,-56.97 3.46,-117.39 10.94,-180.11 7.48,-63.3 19.56,-129.47 36.25,-199.1 5.76,-30.5 10.36,-57.54 13.23,-81.71 2.88,-24.17 4.03,-46.61 4.03,-66.75 0,-51.79 -22.44,-96.1 -66.75,-132.93 -44.31,-37.4 -66.75,-63.87 -66.75,-79.41 0,-24.74 3.45,-46.61 10.93,-65.02 7.48,-18.41 18.41,-33.38 32.8,-44.31 36.83,-23.59 71.35,-46.61 103.58,-67.9 8.06,-4.6 13.81,-12.09 16.69,-22.44 2.88,-10.93 4.03,-25.9 4.03,-44.88 0,-10.93 0,-23.02 0,-36.26 0,-12.66 0,-24.74 0,-36.25 3.46,-100.13 6.33,-203.71 8.63,-311.89 0,-8.06 0,-20.14 0,-36.82 0,-17.27 -1.15,-39.13 -3.45,-66.18 -2.3,-20.14 -2.88,-39.13 -1.73,-56.4 1.15,-17.26 1.73,-33.37 1.73,-47.76 -6.91,-22.44 -12.66,-42.01 -17.84,-58.12 -5.18,-16.69 -7.48,-32.23 -7.48,-46.61 0,-13.24 1.15,-34.52 3.46,-63.3 2.3,-28.77 3.45,-48.91 3.45,-61.57 0,-15.54 -1.73,-37.4 -4.6,-65.6 -2.88,-28.2 -4.03,-49.49 -4.03,-63.88 0,-40.85 9.21,-79.41 27.62,-116.81 18.41,-36.83 47.19,-73.08 85.16,-109.33 36.83,-31.65 74.81,-55.24 113.36,-71.93 39.13,-16.12 78.84,-24.17 119.12,-24.17 18.99,0 47.19,1.15 84.59,4.03 37.98,2.88 67.33,4.6 88.62,4.6 14.39,0 54.67,12.09 119.69,36.83 25.89,2.3 48.91,5.18 69.05,9.21 20.14,4.03 36.26,8.06 48.91,12.66 27.62,13.81 49.49,24.17 65.6,31.07 15.54,7.48 26.47,11.51 33.38,12.66 18.99,6.9 35.68,12.66 49.49,17.26 14.38,4.6 25.9,9.78 34.52,16.69 14.96,6.9 32.23,14.38 51.79,23.59 19.56,9.21 41.43,18.99 66.17,30.5 40.28,20.14 78.26,43.73 113.94,70.78 35.1,27.04 68.48,55.82 100.13,87.46 35.68,40.86 62.72,79.99 80.56,119.12 17.84,38.55 27.04,77.11 27.04,115.66 0,10.93 -0.57,27.04 -2.3,47.76 -1.73,20.71 -5.18,44.31 -9.79,70.2 -2.87,32.23 -20.14,67.33 -50.06,105.3 -30.5,37.4 -74.23,78.84 -131.77,123.72 -50.64,39.71 -97.82,72.51 -141.56,98.98 -43.73,26.47 -84.01,44.88 -120.84,56.39 -14.96,9.79 -25.89,19.57 -33.95,28.77 -10.93,10.93 -34.52,27.05 -70.77,47.19 -35.68,20.14 -84.59,45.46 -146.74,75.96 -112.21,54.66 -191.62,90.92 -238.8,108.18 -47.19,17.84 -70.78,36.25 -70.78,56.96zm-177.24 -813.09c21.29,-15.54 41.43,-31.07 61,-46.04 18.99,-15.54 43.73,-23.02 73.65,-23.02 13.81,0 30.5,14.96 50.07,44.88 19.56,29.35 29.35,51.79 29.35,66.18 0,8.06 -2.88,25.9 -8.06,54.09 -5.75,28.2 -14.96,66.18 -27.04,114.51 -25.9,109.33 -40.86,177.81 -43.73,204.85 -3.46,27.62 -10.93,70.78 -22.44,129.47 -4.03,14.38 -8.63,33.38 -13.23,56.97 0,10.36 1.73,17.26 5.75,21.87 4.03,4.6 9.21,6.9 16.12,6.9 223.27,-112.21 338.93,-170.9 346.99,-175.51 9.21,-2.3 18.41,-5.18 28.77,-9.21 9.78,-4.03 19.56,-8.06 28.77,-12.66l24.74 -32.23c65.6,-41.43 132.93,-85.74 202.55,-132.93 43.73,-33.95 75.96,-66.75 97.25,-99.55 21.87,-32.23 32.23,-65.02 32.23,-97.82 0,-41.43 -24.17,-82.29 -72.51,-123.15 -48.34,-40.28 -120.84,-78.84 -216.94,-116.24 -82.29,-32.8 -157.1,-56.39 -224.42,-71.35 -67.33,-15.54 -128.32,-23.02 -183.57,-23.02 -71.93,0 -126.02,12.66 -162.27,37.98 -36.83,25.32 -55.24,62.72 -55.24,112.21 0,37.98 2.88,66.75 8.63,86.89 5.76,19.57 13.24,28.2 23.59,25.9zm1124.98 1255.6l10.36 -11.51 4.6 -17.26c30.49,-41.43 84.01,-95.52 160.54,-162.27 76.54,-66.75 128.9,-120.84 158.25,-162.27 11.51,-17.84 24.17,-31.07 39.13,-39.13 14.38,-7.48 28.77,-11.51 43.73,-11.51 39.13,0 72.51,9.79 99.55,29.35 27.05,19.57 44.88,49.49 53.52,88.62 8.06,35.1 15.54,70.21 21.87,105.31 6.91,35.68 12.66,71.35 17.26,107.03 7.48,22.44 17.26,56.39 28.2,101.85 11.51,45.46 19.57,71.36 25.32,78.26 5.18,10.93 13.81,18.99 24.74,24.17 11.51,5.18 25.32,7.48 42.01,7.48 20.14,0 40.85,-3.46 62.15,-10.94 20.71,-6.9 42.58,-19.56 65.02,-37.98 16.69,-14.38 34.52,-29.35 52.94,-44.31 18.41,-15.54 36.26,-30.49 54.09,-44.88l69.05 155.37c-17.84,17.84 -42.01,38.55 -71.35,61.57 -29.93,23.02 -65.6,50.07 -107.03,80.57 -46.04,33.37 -85.16,58.69 -117.39,74.81 -32.8,16.69 -56.97,24.74 -74.23,24.74 -101.85,0 -168.03,-12.09 -198.52,-35.68 -29.93,-23.59 -63.88,-89.19 -100.71,-196.8 -4.6,-9.79 -10.93,-20.14 -20.14,-32.8 -8.63,-12.08 -18.99,-27.04 -29.92,-43.73 -13.81,-25.9 -25.32,-45.46 -35.68,-58.12 -9.78,-13.24 -18.41,-19.57 -25.32,-19.57 -17.84,0 -42.01,12.09 -71.93,36.25 -30.49,24.17 -67.32,60.42 -111.06,108.76 -5.75,-14.39 -12.66,-32.23 -21.29,-52.37 -8.63,-20.14 -17.84,-43.73 -27.05,-70.78 -2.3,-6.9 -5.18,-13.23 -8.63,-18.99 -3.46,-5.18 -7.48,-9.78 -12.09,-13.24zm702.61 -1329.26c28.2,0 48.91,5.76 61.57,16.69 13.23,11.51 19.56,27.62 19.56,48.91 -6.9,31.65 -12.66,58.12 -16.69,79.41 -11.51,40.28 -21.29,73.66 -29.92,99.55 -8.06,25.9 -14.38,44.31 -18.99,55.82 -10.36,24.17 -24.17,46.04 -41.43,64.45 -17.26,18.41 -38.55,35.1 -63.3,50.06 -25.9,17.84 -47.18,30.5 -65.02,37.98 -17.26,6.9 -29.35,10.36 -36.25,9.21 -18.99,-2.3 -37.4,-4.6 -54.67,-6.33 -17.26,-1.15 -34.52,-2.3 -51.21,-2.3 -14.96,-8.06 -26.47,-23.02 -34.52,-45.46 -8.63,-22.44 -12.66,-52.94 -12.66,-90.92 0,-33.95 20.14,-76.53 61.57,-127.17 40.85,-51.21 77.1,-78.84 108.76,-82.29 18.99,-23.59 41.43,-50.06 67.32,-80.56 10.93,-8.06 25.9,-14.38 43.74,-19.57 17.84,-5.18 38.55,-7.48 62.15,-7.48zm261.82 1329.26l10.36 -11.51 4.6 -16.69c20.71,-24.74 37.98,-43.73 52.94,-58.12 14.38,-13.81 25.89,-24.74 33.37,-32.23 5.76,-5.76 18.41,-13.24 37.4,-21.87 19.57,-9.21 45.46,-20.14 77.69,-33.38l22.44 -13.81c7.48,-12.09 21.87,-29.92 42.01,-53.52 20.14,-23.59 44.88,-50.63 72.51,-81.13 5.76,-6.9 14.38,-13.81 25.32,-21.87 11.51,-8.06 23.01,-17.84 35.68,-30.5 27.04,-25.9 54.09,-52.37 80.56,-79.98 27.04,-27.62 52.36,-54.67 75.96,-81.71 10.35,-9.79 31.07,-28.2 62.72,-54.67 31.07,-26.47 74.23,-63.29 127.75,-110.48 8.06,-5.76 21.87,-13.81 42.58,-24.17 20.14,-10.93 46.61,-23.59 78.84,-37.98 14.96,-6.91 25.9,-17.84 32.8,-32.8 7.48,-15.54 10.93,-34.53 10.93,-58.12 9.21,-14.96 17.84,-32.8 26.47,-53.51 8.63,-20.72 16.68,-45.46 24.17,-73.08 11.51,-35.1 20.14,-63.3 26.47,-85.16 6.33,-22.44 10.93,-36.83 14.39,-44.88 18.99,-50.63 44.88,-109.91 77.1,-177.81 32.8,-68.48 71.36,-146.16 116.82,-234.2 22.44,-46.04 48.91,-97.25 78.84,-153.07 18.99,-28.2 40.85,-49.49 64.45,-63.3 23.59,-14.38 48.34,-21.29 73.65,-21.29 20.71,0 35.68,8.06 44.88,23.6 9.78,15.54 14.38,38.55 14.38,69.05 0,48.34 -3.45,94.37 -10.35,138.68 -6.33,43.73 -18.99,84.59 -36.83,123.15 -3.45,7.48 -6.33,19.56 -8.63,35.1 -2.3,15.54 -4.6,35.1 -6.9,57.54 -1.15,15.54 -5.18,30.5 -12.66,45.46 -7.48,14.38 -16.69,28.2 -27.62,40.28 0,8.06 -1.15,17.26 -3.45,28.2 -2.3,10.36 -4.6,23.02 -6.91,37.98l-23.59 29.92c-2.3,6.9 -3.45,14.96 -3.45,24.74 0,9.21 0,18.99 0,29.35 0,6.9 -4.03,20.14 -12.09,39.7 -7.48,19.57 -19.57,47.76 -35.1,83.44 -18.41,38.55 -32.8,68.48 -43.16,90.92 -10.93,22.44 -16.68,36.83 -17.84,42.58 -4.6,5.18 -10.36,14.38 -17.84,27.04 -7.48,12.09 -16.11,25.9 -25.89,42.01l4.6 36.83 -108.18 387.85c0,42.58 0.57,78.84 1.73,109.33 1.15,29.93 4.6,54.09 10.35,71.93 5.18,18.99 14.39,42.58 27.62,69.63 12.66,27.62 29.35,56.97 48.91,88.62 12.66,21.29 27.04,36.83 43.73,46.04 16.69,9.78 34.52,14.38 53.52,14.38 21.29,0 42.58,-5.76 64.45,-17.84 21.87,-11.51 43.74,-29.93 66.18,-54.67 13.81,29.35 27.05,56.97 39.13,82.87 12.09,25.9 21.87,50.06 29.93,72.51 -5.76,3.45 -17.84,14.96 -36.26,34.52 -18.41,19.57 -43.16,47.76 -73.08,83.44 -17.84,21.29 -40.28,36.83 -66.75,46.61 -26.47,9.21 -58.69,14.38 -96.68,14.38 -84.59,0 -153.06,-22.44 -205.43,-66.17 -52.94,-43.74 -89.77,-109.33 -111.06,-196.8 -4.6,-17.84 -8.63,-33.37 -12.09,-46.61 -3.45,-13.81 -6.9,-25.89 -10.36,-36.83 -7.48,-21.29 -21.29,-44.31 -40.28,-69.05 -7.48,11.51 -13.81,19.56 -18.41,25.32 -13.24,9.21 -28.2,21.87 -44.88,38.55 -16.12,17.26 -32.8,38.55 -49.49,64.45 -3.46,10.93 -9.79,24.74 -18.41,40.85 -9.21,16.69 -21.29,35.68 -37.41,58.12 -35.68,42.01 -71.93,83.44 -109.33,126.02 -36.83,42.01 -74.23,83.44 -111.06,123.72 -50.64,56.4 -97.25,97.25 -139.83,123.72 -42.58,26.47 -79.41,39.71 -111.06,39.71 -56.39,0 -97.82,-13.24 -124.87,-39.71 -27.04,-26.47 -40.28,-67.9 -40.28,-124.29 0,-25.9 9.79,-62.15 29.35,-108.76 19.57,-47.18 29.35,-81.71 29.35,-104.15l-10.36 -27.04 -69.05 -155.37zm848.19 -480.49c0,-5.76 -2.3,-14.38 -6.91,-25.32 -16.68,16.69 -37.4,36.26 -62.15,59.27 -24.74,22.44 -53.51,46.61 -87.46,73.65 -8.06,18.41 -25.9,46.61 -53.52,85.16 -28.2,39.13 -67.32,86.9 -117.96,144.44 -14.96,16.68 -34.52,45.46 -59.27,86.89 -24.17,40.85 -54.67,90.92 -90.35,150.76 -12.66,23.6 -25.32,51.79 -39.13,85.74 0,6.9 4.6,13.81 13.81,21.87 33.38,-9.79 74.81,-39.71 123.72,-88.62 48.34,-48.91 106.46,-116.24 173.78,-203.13 69.63,-92.07 121.42,-170.33 154.79,-234.77 33.95,-64.45 50.64,-116.82 50.64,-155.94zm561.05 480.49c4.6,-4.6 15.54,-12.66 32.8,-25.32 17.84,-12.09 40.28,-27.05 69.05,-43.73 17.84,-9.79 39.13,-28.2 63.3,-54.67 24.17,-26.47 51.79,-61.57 82.29,-105.3 25.89,-34.52 48.34,-67.9 68.48,-98.98 19.57,-31.65 35.68,-60.42 48.34,-85.74 41.43,-88.04 82.87,-152.49 124.3,-193.92 40.85,-41.43 84.01,-62.15 127.74,-62.15 15.54,0 27.62,4.03 36.25,11.51 8.06,8.06 12.66,20.71 12.66,37.4 0,31.65 -2.88,80.56 -8.63,147.31 -5.76,67.33 -8.06,118.54 -8.06,154.22 0,16.11 0.57,39.71 2.88,70.78 2.3,31.65 5.18,71.35 8.63,119.69 4.6,51.79 8.06,92.07 11.51,120.84 3.45,28.77 6.9,44.88 10.35,49.49l16.69 13.81c23.59,0 92.07,-126.6 204.86,-379.79 113.36,-253.19 204.85,-379.79 275.63,-379.79 29.35,0 50.63,9.78 63.3,28.77 13.23,18.99 19.56,47.18 19.56,84.01 0,14.96 -3.45,27.62 -10.35,39.13 -6.33,10.93 -16.12,20.72 -28.77,28.2 -4.03,3.45 -8.06,9.78 -10.93,18.99 -2.88,8.63 -4.03,20.71 -4.03,35.1 -8.06,40.86 -16.11,82.29 -25.32,124.87 2.3,10.36 5.18,18.99 8.63,27.05 2.87,8.06 6.33,15.54 9.78,23.59 0,-8.06 -2.3,14.96 -7.48,69.05 -5.18,54.09 -11.51,138.1 -19.57,252.62 -1.15,6.9 -1.15,15.54 -0.57,25.32 0.57,10.36 2.3,21.87 5.76,35.68 4.6,14.38 13.81,29.93 28.77,45.46 22.44,0 56.4,-34.53 102.43,-103.58 45.46,-69.05 103,-172.63 171.48,-311.32 4.6,-23.59 10.93,-49.49 19.57,-77.1 8.63,-28.2 20.14,-58.12 34.52,-89.77 9.21,-25.9 20.14,-51.79 32.8,-78.26 13.24,-26.47 25.32,-52.37 36.83,-78.26l-13.81 -50.63c4.6,-21.29 9.21,-43.16 13.81,-65.02 4.03,-21.29 9.21,-42.58 14.96,-62.72 8.06,-27.62 18.99,-48.34 33.95,-62.72 14.38,-13.81 31.65,-20.72 50.64,-20.72 18.99,0 33.37,4.6 42.01,14.39 9.21,9.78 13.81,23.01 13.81,39.7 0,57.54 -5.76,116.82 -16.69,178.96 -11.51,61.57 -27.62,126.02 -48.91,192.19 -24.17,75.38 -50.63,145.01 -80.56,209.46 -29.92,63.88 -63.3,124.87 -100.12,182.41 -28.2,73.08 -71.36,154.79 -128.32,246.29 -37.41,56.97 -66.75,101.28 -88.62,132.35 -22.44,31.07 -35.68,49.49 -39.7,54.66 -30.5,36.26 -61.57,63.3 -93.22,82.29 -31.07,18.41 -63.29,27.62 -96.1,27.62 -41.43,0 -73.08,-32.8 -94.95,-97.82 -21.87,-65.02 -32.8,-162.85 -32.8,-293.47 0,-13.23 2.88,-29.35 8.63,-48.91 5.18,-18.99 8.06,-33.38 8.06,-43.73l-8.06 -13.24c-5.75,0 -14.38,7.48 -26.47,23.59 -11.51,15.54 -26.47,42.01 -44.31,78.84 -21.29,39.71 -45.46,82.29 -72.51,128.32 -1.15,11.51 -3.45,24.17 -7.48,39.13 -4.03,14.39 -10.36,29.35 -18.99,45.46l-55.82 105.88c-8.63,20.14 -18.99,40.28 -29.35,59.85 -10.93,19.57 -20.72,39.13 -29.35,59.27 -13.81,15.54 -29.35,27.05 -47.76,35.1 -18.99,7.48 -39.71,11.51 -63.3,11.51 -6.91,0 -13.24,0 -19.57,-0.57 -6.33,-0.57 -13.81,-3.45 -22.44,-8.06l-28.77 -30.5c-9.21,-8.63 -23.02,-68.48 -40.85,-178.38 -17.84,-109.91 -44.31,-270.46 -79.41,-482.22 -10.93,6.91 -21.29,14.38 -30.49,21.87 -8.63,8.06 -17.26,16.69 -25.32,25.32 -9.78,11.51 -22.44,25.32 -37.98,42.58 -14.96,16.69 -32.23,36.26 -51.79,58.69 -14.38,16.69 -39.13,36.83 -74.23,59.85 -34.52,23.02 -59.84,44.31 -74.23,63.3 -8.06,-22.44 -17.84,-46.61 -29.35,-71.93 -11.51,-25.32 -24.74,-52.94 -39.7,-83.44zm1760.26 -73.08l153.07 -100.13c5.76,-5.75 12.09,-13.23 20.14,-23.02 8.06,-9.2 16.69,-23.01 27.04,-40.85 8.06,-14.96 18.41,-27.04 31.07,-37.4 12.66,-9.78 27.62,-18.99 44.88,-27.05 8.63,-10.93 21.87,-25.32 38.55,-42.01 16.69,-16.68 37.98,-36.25 63.88,-58.69 12.66,-6.9 28.2,-16.68 47.18,-29.92 18.99,-12.66 39.71,-29.92 62.15,-51.21 102.43,-96.68 191.62,-169.18 268.73,-217.52 77.11,-48.34 141.55,-72.5 194.5,-72.5 29.35,0 50.63,6.33 64.45,18.41 14.38,12.66 21.29,29.93 21.29,52.37 0,23.6 -4.03,44.31 -12.66,62.15 -8.63,18.41 -21.29,33.38 -39.71,45.46 -27.62,20.71 -58.12,43.16 -90.92,67.9 -17.84,23.59 -39.7,48.34 -65.6,74.81 -25.9,26.47 -55.82,52.37 -90.92,78.26 -10.93,14.96 -20.71,27.62 -28.2,39.13 -5.76,5.18 -16.69,15.54 -32.23,29.92 -15.54,14.96 -36.25,31.65 -62.15,50.64 -11.51,24.74 -35.68,56.97 -73.66,96.1 -37.4,39.71 -87.46,86.89 -150.19,141.55 -8.06,8.06 -21.87,25.9 -42.58,54.09 -20.14,28.2 -46.61,65.02 -78.84,111.64l11.51 14.96c24.74,-8.06 50.64,-21.29 77.69,-40.28 27.04,-19.56 56.96,-44.88 89.77,-75.96 37.98,-35.1 69.05,-63.3 93.22,-85.16 24.17,-21.87 41.43,-36.25 51.79,-43.16 7.48,-4.6 15.54,-9.21 23.02,-13.23 8.06,-4.6 17.26,-10.36 27.05,-17.26 51.79,-61.57 100.12,-107.61 144.43,-136.96 44.88,-29.92 86.32,-44.88 124.87,-44.88 23.59,0 41.43,9.21 53.51,27.62 12.66,18.41 19.57,46.61 21.87,83.44 -2.3,56.39 -3.45,110.48 -3.45,161.7 -1.15,36.26 8.63,68.48 29.35,97.25 20.71,28.77 47.76,43.16 81.14,43.16 10.35,0 20.14,-2.88 29.34,-8.63 9.79,-5.75 19.57,-13.23 29.35,-22.44 8.06,-10.36 15.54,-20.14 22.44,-29.35 7.48,-9.21 14.96,-17.84 22.44,-27.05 4.6,-2.3 10.93,-6.33 19.57,-12.08 8.06,-5.76 16.11,-12.66 24.17,-20.72 16.11,33.95 29.92,63.3 40.85,88.62 10.93,25.32 18.99,47.76 24.74,66.75 -25.9,23.59 -51.21,48.34 -76.53,73.65 -25.32,25.9 -51.79,50.07 -79.99,72.51 -33.95,25.9 -66.18,45.46 -97.82,58.69 -31.07,13.24 -62.72,19.57 -94.37,19.57 -72.51,0 -128.9,-20.72 -168.03,-62.15 -39.13,-42.01 -62.15,-104.73 -69.05,-189.32 0,-9.78 -1.73,-20.14 -4.03,-31.07 -2.88,-10.36 -9.21,-21.29 -17.84,-32.8 -5.75,5.76 -12.08,11.51 -18.41,17.84 -6.91,6.33 -14.96,14.39 -23.6,24.17 -14.96,11.51 -33.37,25.32 -55.24,42.58 -21.87,16.68 -47.19,36.82 -76.54,60.42 -39.71,40.28 -72.51,73.65 -99.55,99.55 -27.05,25.9 -46.61,44.31 -57.54,55.82 -22.44,18.99 -48.91,37.98 -78.84,56.97 -29.35,18.99 -63.3,38.55 -100.13,59.27 -23.59,12.09 -43.73,21.87 -60.99,29.35 -16.69,7.48 -29.35,10.93 -36.83,10.93 -54.09,0 -94.37,-13.23 -120.27,-39.71 -25.9,-26.47 -38.55,-67.32 -38.55,-123.14 0,-30.5 6.91,-59.27 20.14,-86.89 13.24,-27.62 32.8,-54.67 59.27,-80.56 2.3,-14.96 3.46,-26.47 3.46,-35.68 0,-5.76 -1.15,-11.51 -4.03,-17.26 -2.88,-6.33 -6.9,-13.24 -10.93,-20.72 -6.9,-16.11 -14.38,-33.95 -23.02,-53.51 -8.06,-20.14 -17.26,-41.43 -27.62,-63.88 4.6,-4.6 10.93,-13.23 19.57,-25.89 8.06,-12.66 17.84,-28.77 29.35,-47.19zm1240.64 73.08c4.6,-8.06 10.36,-16.69 17.84,-25.89 7.48,-9.79 16.12,-21.29 25.9,-34.53 11.51,-8.63 25.9,-21.87 44.31,-38.55 17.84,-16.68 37.98,-36.25 60.42,-58.69 20.14,-22.44 45.46,-50.06 74.23,-82.86 29.35,-33.38 65.02,-73.08 106.46,-120.27 18.41,-18.99 40.85,-43.16 67.9,-72.51 27.05,-29.92 58.69,-65.6 96.1,-107.03 31.65,-36.83 65.02,-63.87 101.27,-81.71 36.25,-17.84 74.23,-27.04 115.09,-27.04 40.28,0 70.21,12.66 89.19,37.98 18.99,25.32 28.77,61.57 28.77,109.91 0,25.9 -9.79,75.38 -28.77,147.89 -18.99,73.08 -48.91,169.18 -89.19,289.44 -10.35,22.44 -20.14,43.73 -28.77,63.87 -6.91,14.39 -11.51,27.62 -13.81,38.55 -2.3,11.51 -2.88,20.14 -2.88,25.32 0,6.9 3.45,15.54 11.51,25.32 5.76,-3.45 10.93,-7.48 16.12,-13.24 5.18,-5.75 10.93,-12.66 17.84,-20.14 8.63,-17.26 22.44,-34.52 40.86,-53.51 18.99,-18.41 40.85,-39.13 66.75,-61.57 10.36,-18.99 23.02,-37.98 39.7,-56.39 16.12,-18.41 34.53,-35.68 54.67,-51.22 4.6,-4.6 10.36,-12.08 17.84,-21.87 6.91,-10.35 15.54,-20.71 25.9,-32.23 14.38,-14.38 32.23,-29.92 52.37,-45.46 20.14,-15.54 43.73,-32.23 70.78,-48.91 29.92,-15.54 57.54,-28.2 81.71,-37.41 24.17,-8.63 44.88,-13.23 63.3,-13.23 34.53,0 65.6,8.63 92.65,25.32 26.47,16.69 49.49,43.16 69.05,78.84 22.44,69.63 43.73,134.08 63.87,193.35 12.09,35.1 25.9,60.99 41.43,77.68 14.96,16.69 32.23,25.32 51.21,25.32 14.38,0 27.04,-2.88 38.55,-8.63 11.51,-5.76 22.44,-14.38 32.23,-25.9l69.05 155.37c-18.99,15.54 -38.55,32.22 -58.69,48.91 -20.71,17.26 -40.28,33.38 -59.27,48.91 -25.9,23.59 -50.06,40.28 -72.51,50.06 -22.44,9.79 -44.88,14.39 -67.32,14.39 -25.9,0 -50.64,-5.76 -74.23,-16.69 -23.59,-11.51 -43.73,-28.2 -60.42,-50.64 -9.21,-8.63 -20.14,-25.32 -33.95,-49.49 -13.24,-24.17 -28.77,-54.09 -47.19,-90.34 -14.38,-14.39 -31.07,-33.38 -49.49,-57.55 -18.41,-24.17 -40.28,-52.36 -65.02,-85.16l-14.96 -5.18c-21.29,6.91 -42.58,17.26 -63.3,30.5 -20.72,13.23 -43.16,31.07 -66.18,52.37 -50.64,44.88 -87.47,72.51 -109.91,84.01 -22.44,10.93 -37.4,24.17 -45.46,38.55 -15.54,27.04 -42.58,62.15 -80.56,104.73 -37.98,42.58 -85.74,93.22 -143.29,151.34 -14.38,14.96 -28.77,28.77 -43.73,43.16 -14.39,13.81 -29.35,27.62 -43.74,41.43 -14.38,12.09 -31.07,20.71 -49.49,25.9 -18.41,5.18 -39.13,7.48 -61.57,7.48 -44.88,0 -69.63,-15.54 -73.08,-46.61 -4.03,-31.07 -8.06,-62.15 -11.51,-93.79 17.26,-47.19 36.25,-105.88 57.54,-177.24 21.29,-70.77 46.04,-153.07 73.66,-248.01 0,-5.18 2.3,-12.66 6.33,-22.44 3.45,-9.79 8.63,-22.44 13.81,-37.98 5.76,-14.38 9.78,-27.04 12.09,-37.98 2.3,-10.35 3.45,-20.14 3.45,-27.62 0,-8.06 -2.88,-14.39 -8.63,-18.99 -5.75,-4.03 -14.38,-6.33 -27.04,-6.33 -10.93,0 -25.9,6.33 -44.31,20.14 -18.99,13.24 -40.85,34.53 -66.75,63.88 -31.65,33.95 -56.97,60.42 -75.96,79.41 -18.99,18.99 -32.23,30.5 -38.55,33.95 -11.51,7.48 -24.74,18.99 -39.71,33.37 -14.96,14.96 -32.22,31.07 -51.21,48.91 -2.3,4.6 -5.75,11.51 -10.35,20.14 -4.6,9.21 -11.51,18.99 -21.87,30.5 -4.6,-16.69 -12.66,-37.98 -24.17,-62.72 -11.51,-24.74 -26.47,-55.24 -44.88,-92.65z"/>
  </g>
 </g>
</svg>
