<?xml version="1.0" encoding="UTF-8"?>
<!DOCTYPE svg PUBLIC "-//W3C//DTD SVG 1.1//EN" "http://www.w3.org/Graphics/SVG/1.1/DTD/svg11.dtd">
<!-- Creator: CorelDRAW 2019 (64-Bit) -->
<svg xmlns="http://www.w3.org/2000/svg" xml:space="preserve" width="172.125mm" height="89.7236mm" version="1.1" style="shape-rendering:geometricPrecision; text-rendering:geometricPrecision; image-rendering:optimizeQuality; fill-rule:evenodd; clip-rule:evenodd"
viewBox="0 0 3973.16 2071.08"
 xmlns:xlink="http://www.w3.org/1999/xlink"
 xmlns:xodm="http://www.corel.com/coreldraw/odm/2003">
 <defs>
  <style type="text/css">
   <![CDATA[
    .str0 {stroke:#3C5BA7;stroke-width:92.33;stroke-miterlimit:22.9256}
    .fil0 {fill:none}
    .fil1 {fill:#404040;fill-rule:nonzero}
   ]]>
  </style>
 </defs>
 <g id="Layer_x0020_1">
  <metadata id="CorelCorpID_0Corel-Layer"/>
  <g id="_2635124774432">
   <polygon class="fil0 str0" points="2353.08,90.28 2662.68,1049.72 2972.28,2009.16 1986.58,1797.56 1000.88,1585.97 1676.97,838.12 "/>
   <path class="fil1" d="M236.92 1111.03c0,10.48 7.25,24.44 22.3,42.17 15.04,17.46 37.34,39.22 67.16,65.01 19.61,16.12 39.49,31.97 60.17,47.55 20.68,15.58 41.37,31.16 61.78,47.01 8.87,7.25 20.42,16.92 34.65,28.74 14.24,11.82 30.62,25.52 49.7,41.37 13.43,10.48 27.67,20.95 42.71,31.43 15.04,10.48 31.16,20.95 48.35,31.7 11.55,8.86 24.44,18.54 38.68,29.01 13.97,10.48 30.35,21.76 48.62,33.85 10.48,6.45 18.54,17.73 24.44,34.38 5.64,16.65 9.13,37.87 10.21,64.2l-6.98 20.42 -8.06 4.03c-5.1,0 -12.09,-2.15 -20.68,-6.71 -8.6,-4.57 -19.61,-11.01 -32.77,-19.34 -2.42,-1.61 -14.51,-7.25 -35.73,-17.19 -21.22,-10.21 -51.84,-24.17 -91.6,-42.71 -22.03,-9.4 -42.17,-20.15 -60.71,-31.97 -18.27,-11.82 -34.92,-24.17 -50.23,-37.34 -8.86,-7.79 -20.41,-16.65 -34.11,-26.06 -13.97,-9.4 -30.35,-19.61 -49.16,-30.62 -19.61,-11.28 -36.26,-21.76 -50.5,-31.7 -13.97,-9.94 -25.25,-18.27 -33.85,-25.25 -28.2,-23.1 -51.31,-40.56 -69.03,-52.65 -18,-12.09 -30.09,-18.27 -37.07,-18.27 -5.11,7.52 -8.06,15.04 -8.6,22.83 -6.45,24.71 -12.89,55.87 -20.15,93.21 -6.98,37.61 -14.78,81.12 -23.1,130.82 0,9.13 -1.61,15.85 -4.84,20.15 -3.22,4.57 -7.79,6.71 -14.24,6.71 -20.41,0 -35.73,-5.1 -46.2,-15.04 -10.48,-9.94 -15.85,-24.71 -15.85,-44.86 0,-26.59 1.61,-54.8 5.11,-84.08 3.49,-29.55 9.13,-60.44 16.92,-92.94 2.69,-14.24 4.84,-26.86 6.18,-38.14 1.34,-11.28 1.88,-21.76 1.88,-31.16 0,-24.18 -10.48,-44.86 -31.16,-62.05 -20.68,-17.46 -31.16,-29.82 -31.16,-37.07 0,-11.55 1.61,-21.76 5.1,-30.35 3.49,-8.6 8.6,-15.58 15.31,-20.68 17.19,-11.01 33.31,-21.76 48.35,-31.7 3.76,-2.15 6.45,-5.64 7.79,-10.48 1.34,-5.1 1.88,-12.09 1.88,-20.95 0,-5.1 0,-10.75 0,-16.92 0,-5.91 0,-11.55 0,-16.92 1.61,-46.74 2.95,-95.09 4.03,-145.59 0,-3.76 0,-9.4 0,-17.19 0,-8.06 -0.54,-18.27 -1.61,-30.89 -1.08,-9.4 -1.34,-18.27 -0.81,-26.33 0.54,-8.06 0.81,-15.58 0.81,-22.3 -3.22,-10.48 -5.91,-19.61 -8.33,-27.13 -2.42,-7.79 -3.49,-15.04 -3.49,-21.76 0,-6.18 0.54,-16.12 1.61,-29.55 1.07,-13.43 1.61,-22.83 1.61,-28.74 0,-7.25 -0.81,-17.46 -2.15,-30.62 -1.34,-13.16 -1.88,-23.1 -1.88,-29.82 0,-19.07 4.3,-37.07 12.89,-54.53 8.6,-17.19 22.03,-34.11 39.76,-51.04 17.19,-14.77 34.92,-25.79 52.92,-33.58 18.27,-7.52 36.8,-11.28 55.6,-11.28 8.87,0 22.03,0.54 39.49,1.88 17.73,1.34 31.43,2.15 41.37,2.15 6.72,0 25.52,5.64 55.87,17.19 12.09,1.07 22.83,2.42 32.23,4.3 9.4,1.88 16.92,3.76 22.83,5.91 12.89,6.45 23.1,11.28 30.62,14.51 7.25,3.49 12.36,5.37 15.58,5.91 8.86,3.22 16.65,5.91 23.1,8.06 6.71,2.15 12.09,4.57 16.12,7.79 6.98,3.22 15.04,6.71 24.18,11.01 9.13,4.3 19.34,8.86 30.89,14.24 18.8,9.4 36.53,20.41 53.19,33.04 16.39,12.62 31.97,26.06 46.74,40.83 16.65,19.07 29.28,37.34 37.61,55.6 8.33,18 12.62,36 12.62,53.99 0,5.1 -0.27,12.62 -1.07,22.3 -0.81,9.67 -2.42,20.68 -4.57,32.77 -1.34,15.04 -9.4,31.43 -23.37,49.16 -14.24,17.46 -34.65,36.8 -61.51,57.75 -23.64,18.54 -45.66,33.85 -66.08,46.2 -20.41,12.36 -39.22,20.95 -56.41,26.32 -6.98,4.57 -12.09,9.13 -15.85,13.43 -5.1,5.1 -16.12,12.63 -33.04,22.03 -16.65,9.4 -39.49,21.22 -68.5,35.46 -52.38,25.52 -89.45,42.44 -111.48,50.5 -22.03,8.33 -33.04,16.92 -33.04,26.59zm-82.74 -379.56c9.94,-7.25 19.34,-14.51 28.48,-21.49 8.86,-7.25 20.41,-10.75 34.38,-10.75 6.45,0 14.24,6.98 23.37,20.95 9.13,13.7 13.7,24.18 13.7,30.89 0,3.76 -1.34,12.09 -3.76,25.25 -2.68,13.16 -6.98,30.89 -12.62,53.46 -12.09,51.04 -19.07,83 -20.41,95.63 -1.61,12.89 -5.1,33.04 -10.48,60.44 -1.88,6.71 -4.03,15.58 -6.18,26.59 0,4.84 0.81,8.06 2.68,10.21 1.88,2.15 4.3,3.22 7.52,3.22 104.22,-52.38 158.22,-79.78 161.98,-81.93 4.3,-1.07 8.6,-2.42 13.43,-4.3 4.57,-1.88 9.13,-3.76 13.43,-5.91l11.55 -15.04c30.62,-19.34 62.05,-40.02 94.55,-62.05 20.41,-15.85 35.46,-31.16 45.4,-46.47 10.21,-15.04 15.04,-30.35 15.04,-45.66 0,-19.34 -11.28,-38.41 -33.85,-57.49 -22.56,-18.8 -56.41,-36.8 -101.27,-54.26 -38.41,-15.31 -73.33,-26.32 -104.76,-33.31 -31.43,-7.25 -59.9,-10.75 -85.69,-10.75 -33.58,0 -58.83,5.91 -75.75,17.73 -17.19,11.82 -25.79,29.28 -25.79,52.38 0,17.73 1.34,31.16 4.03,40.56 2.69,9.13 6.18,13.16 11.01,12.09zm525.15 586.13l4.84 -5.37 2.15 -8.06c14.24,-19.34 39.22,-44.59 74.94,-75.75 35.73,-31.16 60.17,-56.41 73.87,-75.75 5.37,-8.33 11.28,-14.51 18.27,-18.27 6.71,-3.49 13.43,-5.37 20.41,-5.37 18.27,0 33.85,4.57 46.47,13.7 12.63,9.13 20.95,23.1 24.98,41.37 3.76,16.39 7.25,32.77 10.21,49.16 3.22,16.65 5.91,33.31 8.06,49.96 3.49,10.48 8.06,26.32 13.16,47.54 5.37,21.22 9.13,33.31 11.82,36.53 2.42,5.1 6.45,8.86 11.55,11.28 5.37,2.42 11.82,3.49 19.61,3.49 9.4,0 19.07,-1.61 29.01,-5.11 9.67,-3.22 19.88,-9.13 30.35,-17.73 7.79,-6.71 16.12,-13.7 24.71,-20.68 8.6,-7.25 16.92,-14.24 25.25,-20.95l32.24 72.53c-8.33,8.33 -19.61,18 -33.31,28.74 -13.97,10.75 -30.62,23.37 -49.96,37.61 -21.49,15.58 -39.76,27.4 -54.8,34.92 -15.31,7.79 -26.59,11.55 -34.65,11.55 -47.55,0 -78.44,-5.64 -92.67,-16.65 -13.97,-11.01 -29.82,-41.64 -47.01,-91.87 -2.15,-4.57 -5.1,-9.4 -9.4,-15.31 -4.03,-5.64 -8.86,-12.62 -13.97,-20.41 -6.45,-12.09 -11.82,-21.22 -16.65,-27.13 -4.57,-6.18 -8.6,-9.13 -11.82,-9.13 -8.33,0 -19.61,5.64 -33.58,16.92 -14.24,11.28 -31.43,28.2 -51.84,50.77 -2.68,-6.72 -5.91,-15.04 -9.94,-24.44 -4.03,-9.4 -8.33,-20.41 -12.63,-33.04 -1.07,-3.22 -2.42,-6.18 -4.03,-8.86 -1.61,-2.42 -3.49,-4.57 -5.64,-6.18zm327.98 -620.51c13.16,0 22.83,2.69 28.74,7.79 6.18,5.37 9.13,12.89 9.13,22.83 -3.22,14.77 -5.91,27.13 -7.79,37.07 -5.37,18.8 -9.94,34.38 -13.97,46.47 -3.76,12.09 -6.71,20.68 -8.86,26.06 -4.84,11.28 -11.28,21.49 -19.34,30.09 -8.06,8.6 -18,16.39 -29.55,23.37 -12.09,8.33 -22.03,14.24 -30.35,17.73 -8.06,3.22 -13.7,4.84 -16.92,4.3 -8.86,-1.08 -17.46,-2.15 -25.52,-2.95 -8.06,-0.54 -16.12,-1.08 -23.91,-1.08 -6.98,-3.76 -12.36,-10.75 -16.12,-21.22 -4.03,-10.48 -5.91,-24.71 -5.91,-42.44 0,-15.85 9.4,-35.73 28.74,-59.36 19.07,-23.91 35.99,-36.8 50.77,-38.41 8.86,-11.01 19.34,-23.37 31.43,-37.61 5.1,-3.76 12.09,-6.71 20.42,-9.13 8.33,-2.42 18,-3.49 29.01,-3.49zm122.22 620.51l4.84 -5.37 2.15 -7.79c9.67,-11.55 17.73,-20.41 24.71,-27.13 6.71,-6.45 12.09,-11.55 15.58,-15.04 2.69,-2.69 8.6,-6.18 17.46,-10.21 9.13,-4.3 21.22,-9.4 36.27,-15.58l10.48 -6.45c3.49,-5.64 10.21,-13.97 19.61,-24.98 9.4,-11.01 20.95,-23.64 33.85,-37.87 2.69,-3.22 6.71,-6.45 11.82,-10.21 5.37,-3.76 10.74,-8.33 16.65,-14.24 12.62,-12.09 25.25,-24.44 37.61,-37.34 12.62,-12.89 24.44,-25.52 35.46,-38.14 4.83,-4.57 14.51,-13.16 29.28,-25.52 14.51,-12.36 34.65,-29.55 59.63,-51.57 3.76,-2.69 10.21,-6.45 19.88,-11.28 9.4,-5.1 21.76,-11.01 36.8,-17.73 6.98,-3.22 12.09,-8.33 15.31,-15.31 3.49,-7.25 5.1,-16.12 5.1,-27.13 4.3,-6.98 8.33,-15.31 12.36,-24.98 4.03,-9.67 7.79,-21.22 11.28,-34.12 5.37,-16.38 9.4,-29.55 12.36,-39.76 2.95,-10.48 5.1,-17.19 6.72,-20.95 8.86,-23.64 20.95,-51.31 35.99,-83 15.31,-31.97 33.31,-68.23 54.53,-109.33 10.48,-21.49 22.83,-45.4 36.8,-71.45 8.86,-13.16 19.07,-23.1 30.09,-29.55 11.01,-6.71 22.56,-9.94 34.38,-9.94 9.67,0 16.65,3.76 20.95,11.02 4.57,7.25 6.71,18 6.71,32.23 0,22.57 -1.61,44.05 -4.83,64.74 -2.95,20.41 -8.87,39.49 -17.19,57.49 -1.61,3.49 -2.95,9.13 -4.03,16.38 -1.07,7.25 -2.15,16.39 -3.22,26.86 -0.54,7.25 -2.42,14.24 -5.91,21.22 -3.49,6.71 -7.79,13.16 -12.89,18.8 0,3.76 -0.54,8.06 -1.61,13.16 -1.08,4.84 -2.15,10.75 -3.22,17.73l-11.01 13.97c-1.08,3.22 -1.61,6.98 -1.61,11.55 0,4.3 0,8.86 0,13.7 0,3.22 -1.88,9.4 -5.64,18.53 -3.49,9.13 -9.13,22.3 -16.39,38.95 -8.6,18 -15.31,31.97 -20.15,42.44 -5.1,10.48 -7.79,17.19 -8.33,19.88 -2.15,2.42 -4.84,6.71 -8.33,12.62 -3.49,5.64 -7.52,12.09 -12.09,19.61l2.15 17.19 -50.5 181.05c0,19.88 0.27,36.8 0.81,51.04 0.54,13.97 2.15,25.25 4.83,33.58 2.42,8.86 6.72,19.88 12.89,32.5 5.91,12.89 13.7,26.59 22.83,41.37 5.91,9.94 12.62,17.19 20.41,21.49 7.79,4.57 16.12,6.71 24.98,6.71 9.94,0 19.88,-2.69 30.08,-8.33 10.21,-5.37 20.42,-13.97 30.89,-25.52 6.45,13.7 12.63,26.59 18.27,38.68 5.64,12.09 10.21,23.37 13.97,33.85 -2.69,1.61 -8.33,6.98 -16.92,16.12 -8.6,9.13 -20.15,22.3 -34.11,38.95 -8.33,9.94 -18.8,17.19 -31.16,21.76 -12.36,4.3 -27.4,6.71 -45.13,6.71 -39.49,0 -71.45,-10.48 -95.9,-30.89 -24.71,-20.42 -41.9,-51.04 -51.84,-91.87 -2.15,-8.33 -4.03,-15.58 -5.64,-21.76 -1.61,-6.45 -3.22,-12.09 -4.84,-17.19 -3.49,-9.94 -9.94,-20.68 -18.8,-32.23 -3.49,5.37 -6.45,9.13 -8.59,11.82 -6.18,4.3 -13.16,10.21 -20.95,18 -7.52,8.06 -15.31,18 -23.1,30.09 -1.61,5.1 -4.57,11.55 -8.6,19.07 -4.3,7.79 -9.94,16.65 -17.46,27.13 -16.65,19.61 -33.58,38.95 -51.04,58.83 -17.19,19.61 -34.65,38.95 -51.84,57.75 -23.64,26.33 -45.4,45.4 -65.27,57.75 -19.88,12.36 -37.07,18.54 -51.84,18.54 -26.32,0 -45.66,-6.18 -58.29,-18.54 -12.62,-12.36 -18.8,-31.7 -18.8,-58.02 0,-12.09 4.57,-29.01 13.7,-50.77 9.13,-22.03 13.7,-38.14 13.7,-48.62l-4.84 -12.62 -32.23 -72.53zm395.95 -224.3c0,-2.69 -1.08,-6.71 -3.22,-11.82 -7.79,7.79 -17.46,16.92 -29.01,27.67 -11.55,10.48 -24.98,21.76 -40.83,34.38 -3.76,8.6 -12.09,21.76 -24.98,39.76 -13.16,18.27 -31.43,40.56 -55.07,67.43 -6.98,7.79 -16.12,21.22 -27.67,40.56 -11.28,19.07 -25.52,42.44 -42.17,70.38 -5.91,11.02 -11.82,24.18 -18.27,40.03 0,3.22 2.15,6.45 6.45,10.21 15.58,-4.57 34.92,-18.54 57.75,-41.37 22.56,-22.83 49.7,-54.26 81.12,-94.82 32.5,-42.98 56.68,-79.51 72.26,-109.6 15.85,-30.09 23.64,-54.53 23.64,-72.8zm261.91 224.3c2.15,-2.15 7.25,-5.91 15.31,-11.82 8.33,-5.64 18.8,-12.63 32.24,-20.41 8.33,-4.57 18.27,-13.16 29.55,-25.52 11.28,-12.36 24.17,-28.74 38.41,-49.16 12.09,-16.12 22.56,-31.7 31.97,-46.2 9.13,-14.77 16.65,-28.2 22.56,-40.02 19.34,-41.1 38.68,-71.19 58.02,-90.52 19.07,-19.34 39.22,-29.01 59.63,-29.01 7.25,0 12.89,1.88 16.92,5.37 3.76,3.76 5.91,9.67 5.91,17.46 0,14.78 -1.34,37.61 -4.03,68.77 -2.69,31.43 -3.76,55.34 -3.76,71.99 0,7.52 0.27,18.54 1.34,33.04 1.07,14.77 2.42,33.31 4.03,55.87 2.15,24.17 3.76,42.98 5.37,56.41 1.61,13.43 3.22,20.95 4.83,23.1l7.79 6.45c11.01,0 42.98,-59.1 95.63,-177.29 52.92,-118.19 95.63,-177.29 128.67,-177.29 13.7,0 23.64,4.57 29.55,13.43 6.18,8.86 9.13,22.03 9.13,39.22 0,6.98 -1.61,12.89 -4.83,18.27 -2.96,5.1 -7.52,9.67 -13.43,13.16 -1.88,1.61 -3.76,4.57 -5.1,8.86 -1.34,4.03 -1.88,9.67 -1.88,16.38 -3.76,19.07 -7.52,38.41 -11.82,58.29 1.07,4.84 2.42,8.86 4.03,12.63 1.34,3.76 2.95,7.25 4.57,11.01 0,-3.76 -1.08,6.98 -3.49,32.24 -2.42,25.25 -5.37,64.47 -9.13,117.92 -0.54,3.22 -0.54,7.25 -0.27,11.82 0.27,4.84 1.07,10.21 2.69,16.65 2.15,6.71 6.45,13.97 13.43,21.22 10.48,0 26.33,-16.12 47.82,-48.35 21.22,-32.24 48.08,-80.59 80.05,-145.33 2.15,-11.01 5.1,-23.1 9.13,-35.99 4.03,-13.16 9.4,-27.13 16.12,-41.9 4.3,-12.09 9.4,-24.18 15.31,-36.53 6.18,-12.36 11.82,-24.44 17.19,-36.53l-6.45 -23.64c2.15,-9.94 4.3,-20.15 6.45,-30.35 1.88,-9.94 4.3,-19.88 6.98,-29.28 3.76,-12.89 8.86,-22.56 15.85,-29.28 6.71,-6.45 14.77,-9.67 23.64,-9.67 8.86,0 15.58,2.15 19.61,6.72 4.3,4.57 6.45,10.74 6.45,18.53 0,26.86 -2.69,54.53 -7.79,83.54 -5.37,28.74 -12.89,58.83 -22.83,89.72 -11.28,35.19 -23.64,67.69 -37.61,97.78 -13.97,29.82 -29.55,58.29 -46.74,85.15 -13.16,34.12 -33.31,72.26 -59.9,114.97 -17.46,26.59 -31.16,47.28 -41.37,61.78 -10.48,14.51 -16.65,23.1 -18.53,25.52 -14.24,16.92 -28.74,29.55 -43.52,38.41 -14.51,8.6 -29.55,12.89 -44.86,12.89 -19.34,0 -34.11,-15.31 -44.32,-45.66 -10.21,-30.35 -15.31,-76.02 -15.31,-137 0,-6.18 1.34,-13.7 4.03,-22.83 2.42,-8.86 3.76,-15.58 3.76,-20.41l-3.76 -6.18c-2.68,0 -6.71,3.49 -12.36,11.01 -5.37,7.25 -12.36,19.61 -20.68,36.8 -9.94,18.54 -21.22,38.41 -33.85,59.9 -0.54,5.37 -1.61,11.28 -3.49,18.27 -1.88,6.72 -4.84,13.7 -8.86,21.22l-26.06 49.43c-4.03,9.4 -8.87,18.8 -13.7,27.94 -5.1,9.13 -9.67,18.27 -13.7,27.67 -6.45,7.25 -13.7,12.63 -22.3,16.39 -8.86,3.49 -18.54,5.37 -29.55,5.37 -3.22,0 -6.18,0 -9.13,-0.27 -2.95,-0.27 -6.45,-1.61 -10.48,-3.76l-13.43 -14.24c-4.3,-4.03 -10.75,-31.97 -19.07,-83.27 -8.33,-51.31 -20.68,-126.25 -37.07,-225.1 -5.1,3.22 -9.94,6.71 -14.24,10.21 -4.03,3.76 -8.06,7.79 -11.82,11.82 -4.57,5.37 -10.48,11.82 -17.73,19.88 -6.98,7.79 -15.04,16.92 -24.18,27.4 -6.71,7.79 -18.27,17.19 -34.65,27.94 -16.12,10.75 -27.93,20.68 -34.65,29.55 -3.76,-10.48 -8.33,-21.76 -13.7,-33.58 -5.37,-11.82 -11.55,-24.71 -18.53,-38.95zm821.71 -34.11l71.45 -46.74c2.69,-2.68 5.64,-6.18 9.4,-10.75 3.76,-4.3 7.79,-10.74 12.62,-19.07 3.76,-6.98 8.6,-12.62 14.51,-17.46 5.91,-4.57 12.89,-8.86 20.95,-12.63 4.03,-5.1 10.21,-11.82 18,-19.61 7.79,-7.79 17.73,-16.92 29.82,-27.4 5.91,-3.22 13.16,-7.79 22.03,-13.97 8.86,-5.91 18.54,-13.97 29.01,-23.91 47.81,-45.13 89.45,-78.97 125.45,-101.54 36,-22.56 66.08,-33.84 90.79,-33.84 13.7,0 23.64,2.95 30.08,8.59 6.71,5.91 9.94,13.97 9.94,24.44 0,11.02 -1.88,20.68 -5.91,29.01 -4.03,8.6 -9.94,15.58 -18.54,21.22 -12.89,9.67 -27.13,20.15 -42.44,31.7 -8.33,11.01 -18.53,22.56 -30.62,34.92 -12.09,12.36 -26.06,24.44 -42.44,36.53 -5.1,6.98 -9.67,12.89 -13.16,18.27 -2.69,2.42 -7.79,7.25 -15.04,13.97 -7.25,6.98 -16.92,14.78 -29.01,23.64 -5.37,11.55 -16.65,26.59 -34.38,44.86 -17.46,18.54 -40.83,40.56 -70.11,66.08 -3.76,3.76 -10.21,12.09 -19.88,25.25 -9.4,13.16 -21.76,30.35 -36.8,52.11l5.37 6.98c11.55,-3.76 23.64,-9.94 36.27,-18.8 12.62,-9.13 26.59,-20.95 41.9,-35.46 17.73,-16.39 32.23,-29.55 43.52,-39.76 11.28,-10.21 19.34,-16.92 24.17,-20.15 3.49,-2.15 7.25,-4.3 10.75,-6.18 3.76,-2.15 8.06,-4.84 12.63,-8.06 24.17,-28.74 46.74,-50.23 67.42,-63.93 20.95,-13.97 40.29,-20.95 58.29,-20.95 11.01,0 19.34,4.3 24.98,12.89 5.91,8.6 9.13,21.76 10.21,38.95 -1.07,26.32 -1.61,51.57 -1.61,75.48 -0.54,16.92 4.03,31.97 13.7,45.4 9.67,13.43 22.3,20.15 37.88,20.15 4.83,0 9.4,-1.34 13.7,-4.03 4.57,-2.68 9.13,-6.18 13.7,-10.48 3.76,-4.84 7.25,-9.4 10.48,-13.7 3.49,-4.3 6.98,-8.33 10.48,-12.63 2.15,-1.07 5.1,-2.95 9.13,-5.64 3.76,-2.69 7.52,-5.91 11.28,-9.67 7.52,15.85 13.97,29.55 19.07,41.37 5.1,11.82 8.86,22.29 11.55,31.16 -12.09,11.01 -23.91,22.56 -35.73,34.38 -11.82,12.09 -24.18,23.37 -37.34,33.85 -15.85,12.09 -30.89,21.22 -45.66,27.4 -14.51,6.18 -29.28,9.13 -44.05,9.13 -33.85,0 -60.17,-9.67 -78.44,-29.01 -18.27,-19.61 -29.01,-48.89 -32.23,-88.38 0,-4.57 -0.81,-9.4 -1.88,-14.51 -1.34,-4.84 -4.3,-9.94 -8.33,-15.31 -2.68,2.69 -5.64,5.37 -8.59,8.33 -3.22,2.96 -6.98,6.72 -11.02,11.28 -6.98,5.37 -15.58,11.82 -25.79,19.88 -10.21,7.79 -22.03,17.19 -35.73,28.2 -18.54,18.8 -33.85,34.38 -46.47,46.47 -12.63,12.09 -21.76,20.68 -26.86,26.06 -10.48,8.86 -22.83,17.73 -36.8,26.59 -13.7,8.86 -29.55,18 -46.74,27.67 -11.01,5.64 -20.41,10.21 -28.47,13.7 -7.79,3.49 -13.7,5.1 -17.19,5.1 -25.25,0 -44.05,-6.18 -56.14,-18.54 -12.09,-12.36 -18,-31.43 -18,-57.48 0,-14.24 3.22,-27.67 9.4,-40.56 6.18,-12.89 15.31,-25.52 27.67,-37.61 1.08,-6.98 1.61,-12.36 1.61,-16.65 0,-2.69 -0.54,-5.37 -1.88,-8.06 -1.34,-2.96 -3.22,-6.18 -5.1,-9.67 -3.22,-7.52 -6.71,-15.85 -10.75,-24.98 -3.76,-9.4 -8.06,-19.34 -12.89,-29.82 2.15,-2.15 5.1,-6.18 9.13,-12.09 3.76,-5.91 8.33,-13.43 13.7,-22.03zm579.15 34.11c2.15,-3.76 4.84,-7.79 8.33,-12.09 3.49,-4.57 7.52,-9.94 12.09,-16.12 5.37,-4.03 12.09,-10.21 20.68,-18 8.33,-7.79 17.73,-16.92 28.2,-27.4 9.4,-10.48 21.22,-23.37 34.65,-38.68 13.7,-15.58 30.35,-34.11 49.7,-56.14 8.59,-8.86 19.07,-20.15 31.7,-33.85 12.63,-13.97 27.4,-30.62 44.86,-49.96 14.77,-17.19 30.35,-29.82 47.28,-38.14 16.92,-8.33 34.65,-12.62 53.72,-12.62 18.8,0 32.77,5.91 41.64,17.73 8.86,11.82 13.43,28.74 13.43,51.31 0,12.09 -4.57,35.19 -13.43,69.04 -8.86,34.11 -22.83,78.97 -41.64,135.12 -4.83,10.48 -9.4,20.41 -13.43,29.82 -3.22,6.72 -5.37,12.89 -6.45,18 -1.08,5.37 -1.34,9.4 -1.34,11.82 0,3.22 1.61,7.25 5.37,11.82 2.69,-1.61 5.1,-3.49 7.52,-6.18 2.42,-2.68 5.1,-5.91 8.33,-9.4 4.03,-8.06 10.48,-16.12 19.07,-24.98 8.86,-8.6 19.07,-18.27 31.16,-28.74 4.84,-8.86 10.75,-17.73 18.53,-26.32 7.52,-8.6 16.12,-16.66 25.52,-23.91 2.15,-2.15 4.84,-5.64 8.33,-10.21 3.22,-4.83 7.25,-9.67 12.09,-15.04 6.71,-6.71 15.04,-13.97 24.44,-21.22 9.4,-7.25 20.41,-15.04 33.04,-22.83 13.97,-7.25 26.86,-13.16 38.14,-17.46 11.28,-4.03 20.95,-6.18 29.55,-6.18 16.12,0 30.62,4.03 43.25,11.82 12.36,7.79 23.1,20.15 32.24,36.8 10.48,32.5 20.41,62.59 29.82,90.26 5.64,16.39 12.09,28.47 19.34,36.26 6.98,7.79 15.04,11.82 23.91,11.82 6.71,0 12.62,-1.34 18,-4.03 5.37,-2.69 10.48,-6.71 15.04,-12.09l32.23 72.53c-8.86,7.25 -18,15.04 -27.4,22.83 -9.67,8.06 -18.8,15.58 -27.67,22.83 -12.09,11.01 -23.37,18.8 -33.85,23.37 -10.48,4.57 -20.95,6.72 -31.43,6.72 -12.09,0 -23.64,-2.69 -34.65,-7.79 -11.01,-5.37 -20.41,-13.16 -28.2,-23.64 -4.3,-4.03 -9.4,-11.82 -15.85,-23.1 -6.18,-11.28 -13.43,-25.25 -22.03,-42.17 -6.71,-6.72 -14.51,-15.58 -23.1,-26.86 -8.6,-11.28 -18.8,-24.44 -30.35,-39.76l-6.98 -2.42c-9.94,3.22 -19.88,8.06 -29.55,14.24 -9.67,6.18 -20.15,14.51 -30.89,24.44 -23.64,20.95 -40.83,33.85 -51.31,39.22 -10.48,5.1 -17.46,11.28 -21.22,18 -7.25,12.62 -19.88,29.01 -37.61,48.89 -17.73,19.88 -40.03,43.52 -66.89,70.65 -6.71,6.98 -13.43,13.43 -20.41,20.15 -6.72,6.45 -13.7,12.89 -20.42,19.34 -6.71,5.64 -14.51,9.67 -23.1,12.09 -8.59,2.42 -18.27,3.49 -28.74,3.49 -20.95,0 -32.5,-7.25 -34.12,-21.76 -1.88,-14.51 -3.76,-29.01 -5.37,-43.78 8.06,-22.03 16.92,-49.43 26.86,-82.74 9.94,-33.04 21.49,-71.45 34.38,-115.77 0,-2.42 1.07,-5.91 2.95,-10.48 1.61,-4.57 4.03,-10.48 6.45,-17.73 2.69,-6.71 4.57,-12.62 5.64,-17.73 1.07,-4.83 1.61,-9.4 1.61,-12.89 0,-3.76 -1.34,-6.72 -4.03,-8.87 -2.68,-1.88 -6.71,-2.95 -12.62,-2.95 -5.1,0 -12.09,2.95 -20.68,9.4 -8.86,6.18 -19.07,16.12 -31.16,29.82 -14.77,15.85 -26.59,28.2 -35.46,37.07 -8.86,8.86 -15.04,14.24 -18,15.85 -5.37,3.49 -11.55,8.86 -18.54,15.58 -6.98,6.98 -15.04,14.51 -23.91,22.83 -1.07,2.15 -2.68,5.37 -4.83,9.4 -2.15,4.3 -5.37,8.86 -10.21,14.24 -2.15,-7.79 -5.91,-17.73 -11.28,-29.28 -5.37,-11.55 -12.36,-25.79 -20.95,-43.25z"/>
  </g>
 </g>
</svg>
