<?xml version="1.0" encoding="UTF-8"?>
<!DOCTYPE svg PUBLIC "-//W3C//DTD SVG 1.1//EN" "http://www.w3.org/Graphics/SVG/1.1/DTD/svg11.dtd">
<!-- Creator: CorelDRAW 2019 (64-Bit) -->
<svg xmlns="http://www.w3.org/2000/svg" xml:space="preserve" width="14.0173mm" height="14.7025mm" version="1.1" style="shape-rendering:geometricPrecision; text-rendering:geometricPrecision; image-rendering:optimizeQuality; fill-rule:evenodd; clip-rule:evenodd"
viewBox="0 0 271.6 284.87"
 xmlns:xlink="http://www.w3.org/1999/xlink"
 xmlns:xodm="http://www.corel.com/coreldraw/odm/2003">
 <defs>
  <style type="text/css">
   <![CDATA[
    .fil0 {fill:#FEFEFE;fill-rule:nonzero}
   ]]>
  </style>
 </defs>
 <g id="Layer_x0020_1">
  <metadata id="CorelCorpID_0Corel-Layer"/>
  <g id="_2322112482736">
   <path class="fil0" d="M49.71 24.85c0,13.72 -11.14,24.86 -24.86,24.86 -13.73,0 -24.85,-11.14 -24.85,-24.86 0,-13.73 11.12,-24.85 24.85,-24.85 13.73,0 24.86,11.12 24.86,24.85z"/>
   <path class="fil0" d="M160.66 24.85c0,13.72 -11.14,24.86 -24.86,24.86 -13.72,0 -24.86,-11.14 -24.86,-24.86 0,-13.73 11.14,-24.85 24.86,-24.85 13.73,0 24.86,11.12 24.86,24.85z"/>
   <path class="fil0" d="M271.6 24.85c0,13.72 -11.12,24.86 -24.85,24.86 -13.73,0 -24.86,-11.14 -24.86,-24.86 0,-13.73 11.14,-24.85 24.86,-24.85 13.73,0 24.85,11.12 24.85,24.85z"/>
   <path class="fil0" d="M49.71 142.43c0,13.73 -11.14,24.86 -24.86,24.86 -13.73,0 -24.85,-11.13 -24.85,-24.86 0,-13.71 11.12,-24.84 24.85,-24.84 13.73,0 24.86,11.13 24.86,24.84z"/>
   <path class="fil0" d="M160.66 142.43c0,13.73 -11.14,24.86 -24.86,24.86 -13.72,0 -24.86,-11.13 -24.86,-24.86 0,-13.71 11.14,-24.84 24.86,-24.84 13.73,0 24.86,11.13 24.86,24.84z"/>
   <path class="fil0" d="M271.6 142.43c0,13.73 -11.12,24.86 -24.85,24.86 -13.73,0 -24.86,-11.13 -24.86,-24.86 0,-13.71 11.14,-24.84 24.86,-24.84 13.73,0 24.85,11.13 24.85,24.84z"/>
   <path class="fil0" d="M49.71 260.01c0,13.73 -11.14,24.86 -24.86,24.86 -13.73,0 -24.85,-11.13 -24.85,-24.86 0,-13.72 11.12,-24.86 24.85,-24.86 13.73,0 24.86,11.14 24.86,24.86z"/>
   <path class="fil0" d="M160.66 260.01c0,13.73 -11.14,24.86 -24.86,24.86 -13.72,0 -24.86,-11.13 -24.86,-24.86 0,-13.72 11.14,-24.86 24.86,-24.86 13.73,0 24.86,11.14 24.86,24.86z"/>
   <path class="fil0" d="M271.6 260.01c0,13.73 -11.12,24.86 -24.85,24.86 -13.73,0 -24.86,-11.13 -24.86,-24.86 0,-13.72 11.14,-24.86 24.86,-24.86 13.73,0 24.85,11.14 24.85,24.86z"/>
  </g>
 </g>
</svg>
