<?xml version="1.0" encoding="UTF-8"?>
<!DOCTYPE svg PUBLIC "-//W3C//DTD SVG 1.1//EN" "http://www.w3.org/Graphics/SVG/1.1/DTD/svg11.dtd">
<!-- Creator: CorelDRAW 2019 (64-Bit) -->
<svg xmlns="http://www.w3.org/2000/svg" xml:space="preserve" width="8.633mm" height="42.6484mm" version="1.1" style="shape-rendering:geometricPrecision; text-rendering:geometricPrecision; image-rendering:optimizeQuality; fill-rule:evenodd; clip-rule:evenodd"
viewBox="0 0 224.46 1108.86"
 xmlns:xlink="http://www.w3.org/1999/xlink"
 xmlns:xodm="http://www.corel.com/coreldraw/odm/2003">
 <defs>
  <style type="text/css">
   <![CDATA[
    .fil0 {fill:#4256A2;fill-rule:nonzero}
   ]]>
  </style>
 </defs>
 <g id="Layer_x0020_1">
  <metadata id="CorelCorpID_0Corel-Layer"/>
  <g id="_2322081701696">
   <path class="fil0" d="M33.34 1042.18c18.42,0 33.36,14.93 33.36,33.34 0,18.42 -14.94,33.34 -33.36,33.34 -18.42,0 -33.34,-14.92 -33.34,-33.34 0,-18.41 14.92,-33.34 33.34,-33.34z"/>
   <path class="fil0" d="M33.34 893.3c18.42,0 33.36,14.92 33.36,33.34 0,18.42 -14.94,33.36 -33.36,33.36 -18.42,0 -33.34,-14.94 -33.34,-33.36 0,-18.42 14.92,-33.34 33.34,-33.34z"/>
   <path class="fil0" d="M33.34 744.41c18.42,0 33.36,14.94 33.36,33.34 0,18.42 -14.94,33.36 -33.36,33.36 -18.42,0 -33.34,-14.94 -33.34,-33.36 0,-18.4 14.92,-33.34 33.34,-33.34z"/>
   <path class="fil0" d="M33.34 595.53c18.42,0 33.36,14.94 33.36,33.34 0,18.42 -14.94,33.36 -33.36,33.36 -18.42,0 -33.34,-14.94 -33.34,-33.36 0,-18.4 14.92,-33.34 33.34,-33.34z"/>
   <path class="fil0" d="M33.34 446.65c18.42,0 33.36,14.94 33.36,33.36 0,18.4 -14.94,33.34 -33.36,33.34 -18.42,0 -33.34,-14.94 -33.34,-33.34 0,-18.42 14.92,-33.36 33.34,-33.36z"/>
   <path class="fil0" d="M33.34 297.77c18.42,0 33.36,14.94 33.36,33.36 0,18.42 -14.94,33.34 -33.36,33.34 -18.42,0 -33.34,-14.92 -33.34,-33.34 0,-18.42 14.92,-33.36 33.34,-33.36z"/>
   <path class="fil0" d="M33.34 148.88c18.42,0 33.36,14.94 33.36,33.36 0,18.42 -14.94,33.34 -33.36,33.34 -18.42,0 -33.34,-14.92 -33.34,-33.34 0,-18.42 14.92,-33.36 33.34,-33.36z"/>
   <path class="fil0" d="M33.34 0c18.42,0 33.36,14.94 33.36,33.36 0,18.42 -14.94,33.36 -33.36,33.36 -18.42,0 -33.34,-14.94 -33.34,-33.36 0,-18.42 14.92,-33.36 33.34,-33.36z"/>
   <path class="fil0" d="M191.12 1042.18c18.42,0 33.34,14.93 33.34,33.34 0,18.42 -14.92,33.34 -33.34,33.34 -18.42,0 -33.36,-14.92 -33.36,-33.34 0,-18.41 14.94,-33.34 33.36,-33.34z"/>
   <path class="fil0" d="M191.12 893.3c18.42,0 33.34,14.92 33.34,33.34 0,18.42 -14.92,33.36 -33.34,33.36 -18.42,0 -33.36,-14.94 -33.36,-33.36 0,-18.42 14.94,-33.34 33.36,-33.34z"/>
   <path class="fil0" d="M191.12 744.41c18.42,0 33.34,14.94 33.34,33.34 0,18.42 -14.92,33.36 -33.34,33.36 -18.42,0 -33.36,-14.94 -33.36,-33.36 0,-18.4 14.94,-33.34 33.36,-33.34z"/>
   <path class="fil0" d="M191.12 595.53c18.42,0 33.34,14.94 33.34,33.34 0,18.42 -14.92,33.36 -33.34,33.36 -18.42,0 -33.36,-14.94 -33.36,-33.36 0,-18.4 14.94,-33.34 33.36,-33.34z"/>
   <path class="fil0" d="M191.12 446.65c18.42,0 33.34,14.94 33.34,33.36 0,18.4 -14.92,33.34 -33.34,33.34 -18.42,0 -33.36,-14.94 -33.36,-33.34 0,-18.42 14.94,-33.36 33.36,-33.36z"/>
   <path class="fil0" d="M191.12 297.77c18.42,0 33.34,14.94 33.34,33.36 0,18.42 -14.92,33.34 -33.34,33.34 -18.42,0 -33.36,-14.92 -33.36,-33.34 0,-18.42 14.94,-33.36 33.36,-33.36z"/>
   <path class="fil0" d="M191.12 148.88c18.42,0 33.34,14.94 33.34,33.36 0,18.42 -14.92,33.34 -33.34,33.34 -18.42,0 -33.36,-14.92 -33.36,-33.34 0,-18.42 14.94,-33.36 33.36,-33.36z"/>
   <path class="fil0" d="M191.12 0c18.42,0 33.34,14.94 33.34,33.36 0,18.42 -14.92,33.36 -33.34,33.36 -18.42,0 -33.36,-14.94 -33.36,-33.36 0,-18.42 14.94,-33.36 33.36,-33.36z"/>
  </g>
 </g>
</svg>
